<?xml version="1.0" encoding="UTF-8" standalone="no"?><!DOCTYPE svg PUBLIC "-//W3C//DTD SVG 1.1//EN" "http://www.w3.org/Graphics/SVG/1.1/DTD/svg11.dtd"><svg width="100%" height="100%" viewBox="0 0 1080 1080" version="1.1" xmlns="http://www.w3.org/2000/svg" xmlns:xlink="http://www.w3.org/1999/xlink" xml:space="preserve" xmlns:serif="http://www.serif.com/" style="fill-rule:evenodd;clip-rule:evenodd;stroke-linejoin:round;stroke-miterlimit:2;"><path d="M1055.74,527.871c0,247.43 -231.187,448.031 -516.48,448.031c-74.039,0 -144.387,-13.5 -208.09,-37.863c-26.473,-10.125 -136.688,76.887 -160.629,63.281c-26.684,-15.293 33.223,-131.625 10.23,-150.82c-97.347,-81.527 -157.886,-195.961 -157.886,-322.629c-0,-247.43 231.187,-448.031 516.48,-448.031c285.293,-0 516.375,200.601 516.375,448.031Z" style="fill:#fafcfb;fill-rule:nonzero;"/><path d="M177.188,1017.03c-5.063,0 -9.598,-1.055 -13.606,-3.375c-17.297,-9.914 -14.344,-34.277 -13.394,-42.293c1.792,-14.765 6.539,-32.695 11.074,-49.992c3.691,-14.133 7.593,-28.793 9.492,-40.711c2.32,-13.922 0.949,-18.668 0.633,-19.723c-50.836,-42.504 -90.809,-92.496 -118.758,-148.5c-29.215,-58.324 -43.981,-120.445 -43.981,-184.57c0,-62.648 14.133,-123.398 41.977,-180.668c26.895,-55.055 65.285,-104.519 114.117,-146.918c48.727,-42.293 105.469,-75.515 168.539,-98.613c65.285,-23.942 134.578,-36.07 205.981,-36.07c71.402,-0 140.695,12.128 205.98,36.07c63.176,23.203 119.813,56.32 168.539,98.613c48.938,42.399 87.328,91.863 114.117,146.918c27.844,57.164 41.977,118.02 41.977,180.668c0,62.649 -14.133,123.399 -41.977,180.668c-26.894,55.055 -65.285,104.52 -114.117,146.918c-48.726,42.293 -105.468,75.516 -168.539,98.613c-65.285,23.942 -134.578,36.071 -205.98,36.071c-74.039,-0 -145.547,-12.973 -212.836,-38.707c-1.055,-0.106 -6.645,-0.106 -23.625,7.699c-12.973,6.012 -28.688,14.66 -43.875,23.097c-37.969,21.2 -63.598,34.805 -81.738,34.805Zm362.074,-922.957c-68.028,0 -134.051,11.602 -196.067,34.383c-59.906,21.937 -113.59,53.367 -159.785,93.445c-45.984,39.762 -82.055,86.168 -107.156,137.742c-25.945,53.262 -39.129,109.899 -39.129,168.118c-0,59.695 13.816,117.492 41.027,171.914c26.262,52.734 63.914,99.773 111.903,139.851c18.14,15.188 9.175,49.465 -1.266,89.121c-3.797,14.239 -7.594,29.11 -9.598,41.133c-1.793,11.18 -1.371,16.559 -0.843,18.774c2.742,-0.211 9.175,-1.582 22.464,-7.7c13.184,-6.011 29.11,-14.871 44.403,-23.414c45.984,-25.523 72.879,-39.656 91.23,-32.59c64.02,24.469 132.364,36.915 202.922,36.915c68.028,-0 134.051,-11.602 196.067,-34.383c59.906,-21.938 113.589,-53.367 159.785,-93.446c45.984,-39.867 82.054,-86.273 107.261,-137.953c25.946,-53.261 39.129,-109.898 39.129,-168.117c0,-58.324 -13.183,-114.855 -39.129,-168.117c-25.207,-51.574 -61.277,-97.981 -107.261,-137.953c-46.09,-39.973 -99.879,-71.403 -159.785,-93.446c-62.121,-22.781 -128.145,-34.277 -196.172,-34.277Z" style="fill:#0f0f0f;fill-rule:nonzero;"/><path d="M707.484,427.254c0,26.962 22.187,49.148 49.149,49.148c26.962,0 49.148,-22.186 49.148,-49.148c0,-26.962 -22.186,-49.149 -49.148,-49.149c-26.962,0 -49.149,22.187 -49.149,49.149l0,-0Z" style="fill:#141414;fill-rule:nonzero;"/><path d="M364.605,466.172c-7.91,-0 -14.238,-6.328 -14.238,-14.238c0,-19.301 -14.238,-35.016 -31.64,-35.016c-17.403,-0 -31.641,15.715 -31.641,35.016c-0,7.91 -6.328,14.238 -14.238,14.238c-7.91,-0 -14.239,-6.328 -14.239,-14.238c0,-35.016 27,-63.493 60.118,-63.493c33.117,0 60.117,28.477 60.117,63.493c-0,7.804 -6.434,14.238 -14.239,14.238Z" style="fill:#141414;fill-rule:nonzero;"/><path d="M417.867,561.832c0,63.387 54.633,115.172 121.5,115.172c66.762,-0 121.5,-51.785 121.5,-115.172l0,-29.426l-243,0l0,29.426Z" style="fill:#4f423b;fill-rule:nonzero;"/><path d="M539.262,691.242c-74.778,0 -135.739,-58.113 -135.739,-129.41l0,-43.664l271.477,-0l0,43.664c0,71.402 -60.855,129.41 -135.738,129.41Zm-107.157,-144.597l0,15.187c0,55.688 48.094,100.934 107.262,100.934c59.168,-0 107.262,-45.246 107.262,-100.934l-0,-15.187l-214.524,-0Z" style="fill:#141414;fill-rule:nonzero;"/><path d="M467.438,620.789c-0,15.68 32.422,28.582 71.824,28.582c39.401,0 71.824,-12.902 71.824,-28.582c-0,-15.68 -32.423,-28.582 -71.824,-28.582c-39.402,0 -71.824,12.902 -71.824,28.582l-0,0Z" style="fill:#d39e33;fill-rule:nonzero;"/><path d="M140.695,592.523c0,24.59 20.235,44.825 44.825,44.825c24.589,-0 44.824,-20.235 44.824,-44.825c-0,-24.589 -20.235,-44.824 -44.824,-44.824c-24.59,0 -44.825,20.235 -44.825,44.824Z" style="fill:#9dc6af;fill-rule:nonzero;"/><path d="M855.246,592.523c0,24.59 20.234,44.825 44.824,44.825c24.59,-0 44.825,-20.235 44.825,-44.825c-0,-24.589 -20.235,-44.824 -44.825,-44.824c-24.59,0 -44.824,20.235 -44.824,44.824Z" style="fill:#9dc6af;fill-rule:nonzero;"/></svg>