<?xml version="1.0" encoding="UTF-8" standalone="no"?><!DOCTYPE svg PUBLIC "-//W3C//DTD SVG 1.1//EN" "http://www.w3.org/Graphics/SVG/1.1/DTD/svg11.dtd"><svg width="100%" height="100%" viewBox="0 0 835 835" version="1.1" xmlns="http://www.w3.org/2000/svg" xmlns:xlink="http://www.w3.org/1999/xlink" xml:space="preserve" xmlns:serif="http://www.serif.com/" style="fill-rule:evenodd;clip-rule:evenodd;stroke-linejoin:round;stroke-miterlimit:2;"><clipPath id="_clip1"><rect id="check-tick-svgrepo-com.svg" x="0" y="0" width="834.414" height="834.414"/></clipPath><g clip-path="url(#_clip1)"><path d="M544.556,111.567l-450.425,-0c-44.516,-0 -80.604,36.087 -80.604,80.604l-0,450.425c-0,44.516 36.086,80.604 80.604,80.604l450.425,0c44.516,0 80.604,-36.086 80.604,-80.604l-0,-450.425c-0,-44.517 -36.087,-80.604 -80.604,-80.604Z" style="fill:#b4bbcc;fill-rule:nonzero;"/><path d="M507.71,193.18l-376.733,-0c-19.793,-0 -35.836,16.044 -35.836,35.836l0,376.732c0,19.793 16.045,35.836 35.836,35.836l376.733,0c19.793,0 35.836,-16.044 35.836,-35.836l-0,-376.731c0.001,-19.791 -16.043,-35.837 -35.836,-35.837Z" style="fill:#fff;fill-rule:nonzero;"/><path d="M131.246,265.122c-0,-19.793 16.044,-35.836 35.836,-35.836l376.464,0l-0,-0.269c-0,-19.793 -16.045,-35.836 -35.838,-35.836l-376.731,0c-19.793,0 -35.836,16.045 -35.836,35.836l0,376.731c0,19.793 16.045,35.836 35.836,35.836l0.269,0c-0,0.002 -0,-376.462 -0,-376.462Z" style="fill-opacity:0.1;fill-rule:nonzero;"/><path d="M387.148,599.063c-14.515,0 -28.603,-5.635 -39.162,-15.93l-184.149,-179.502c-22.19,-21.631 -22.643,-57.154 -1.016,-79.346c21.628,-22.191 57.151,-22.641 79.345,-1.015l134.621,131.225c53.909,-76.843 166.346,-211.899 357.732,-334.421c26.106,-16.709 60.801,-9.092 77.506,17.005c16.709,26.098 9.095,60.799 -17.003,77.507c-257.053,164.562 -357.154,352.462 -358.135,354.341c-8.209,15.72 -23.367,26.634 -40.88,29.432c-2.953,0.475 -5.914,0.704 -8.859,0.704Z" style="fill:#a5eb78;fill-rule:nonzero;"/><path d="M823.441,129.766c-20.702,-32.343 -63.861,-41.809 -96.209,-21.108c-32.47,20.785 -62.688,41.963 -90.757,63.159c-9.324,-42.163 -46.978,-73.806 -91.904,-73.806l-306.387,0c-7.478,0 -13.539,6.063 -13.539,13.54c-0,7.477 6.061,13.539 13.539,13.539l306.387,0c36.572,0 66.401,29.43 67.053,65.852c-19.26,15.21 -37.406,30.37 -54.524,45.376l-0,-7.315c-0,-27.226 -22.151,-49.376 -49.376,-49.376l-69.165,0c-7.478,0 -13.539,6.063 -13.539,13.54c-0,7.477 6.061,13.539 13.539,13.539l69.165,0c12.297,0 22.298,10.004 22.298,22.298l0,31.705c-70.648,65.402 -121.207,126.443 -155.067,173.065l-123.324,-120.209c-27.506,-26.807 -71.688,-26.238 -98.49,1.26c-26.807,27.5 -26.242,71.685 1.258,98.49l68.957,67.214c2.506,2.443 5.992,3.874 9.496,3.842c3.597,-0.033 7.138,-1.51 9.653,-4.088c5.218,-5.355 5.109,-13.926 -0.246,-19.144l-68.957,-67.214c-16.809,-16.385 -17.154,-43.39 -0.769,-60.199c16.379,-16.805 43.386,-17.152 60.197,-0.769c-0,0 134.595,131.197 134.621,131.225c2.819,2.747 6.792,4.154 10.712,3.786c3.952,-0.37 7.544,-2.456 9.822,-5.704c2.604,-3.715 5.243,-7.404 7.902,-11.079c53.041,-73.214 163.153,-202.628 346.047,-319.714c19.771,-12.655 46.149,-6.87 58.804,12.9c12.656,19.769 6.869,46.149 -12.901,58.804c-67.436,43.171 -124.196,87.975 -171.337,130.708c-0.104,0.088 -0.218,0.158 -0.321,0.251c-31.822,28.852 -59.225,56.735 -82.561,82.535c-17.937,19.835 -35.38,40.555 -51.799,61.822c-36.553,47.3 -54.152,79.207 -56.52,83.602c-0.054,0.1 -0.101,0.188 -0.14,0.261c-0.028,0.052 -0.044,0.083 -0.065,0.121c-0.049,0.091 -0.085,0.159 -0.095,0.177c-6.199,11.871 -17.793,20.22 -31.022,22.332c-13.2,2.111 -26.859,-2.223 -36.427,-11.551l-76.298,-74.371c-0.67,-0.653 -1.39,-1.222 -2.147,-1.707c-5.301,-3.403 -12.436,-2.732 -16.999,1.954c-5.218,5.355 -5.109,13.925 0.246,19.144l76.298,74.37c13.079,12.753 30.346,19.775 48.613,19.775c11.788,0 23.59,-3.08 33.883,-8.83c11.731,-6.549 21.518,-16.434 27.852,-28.562c0.486,-0.921 25.328,-47.128 81.126,-113.216l-0,143.752c-0,12.296 -10.002,22.299 -22.298,22.299l-376.734,0c-12.297,0 -22.3,-10.003 -22.3,-22.299l0,-376.739c0,-12.295 10.003,-22.298 22.3,-22.298l253.409,-0c7.478,-0 13.539,-6.063 13.539,-13.54c0,-7.477 -6.061,-13.54 -13.539,-13.54l-253.409,0c-27.228,0 -49.379,22.152 -49.379,49.376l-0,376.733c-0,27.227 22.151,49.378 49.379,49.378l376.734,0c27.226,0 49.375,-22.151 49.375,-49.378l0,-174.587c16.175,-17.731 34.321,-36.45 54.534,-55.775l-0,267.21c-0,36.979 -30.085,67.064 -67.063,67.064l-450.428,-0c-36.98,-0 -67.065,-30.085 -67.065,-67.066l0,-450.424c0,-36.98 30.085,-67.064 67.065,-67.064l89.88,-0c7.479,-0 13.54,-6.063 13.54,-13.54c-0,-7.477 -6.061,-13.539 -13.54,-13.539l-89.88,-0c-51.91,-0 -94.144,42.232 -94.144,94.143l0,450.424c0,51.911 42.234,94.144 94.144,94.144l450.425,-0c51.911,-0 94.142,-42.233 94.142,-94.144l0,-292.31c45.298,-40.707 99.533,-83.266 163.625,-124.294c32.343,-20.709 41.814,-63.868 21.105,-96.21Z" style="fill-rule:nonzero;"/></g></svg>